<?xml version="1.0" standalone="no"?>
<!DOCTYPE svg PUBLIC "-//W3C//DTD SVG 20010904//EN"
 "http://www.w3.org/TR/2001/REC-SVG-20010904/DTD/svg10.dtd">
<svg version="1.0" xmlns="http://www.w3.org/2000/svg"
 width="25.000000pt" height="27.000000pt" viewBox="0 0 25.000000 27.000000"
 preserveAspectRatio="xMidYMid meet">

<g transform="translate(0.000000,27.000000) scale(0.100000,-0.100000)"
fill="#000000" stroke="none">
<path d="M18 194 c-5 -68 -2 -82 19 -120 45 -80 95 -95 143 -43 54 60 60 69
60 93 0 37 -35 112 -61 130 -16 11 -45 16 -90 16 l-66 0 -5 -76z m102 41 c0
-10 -10 -15 -34 -15 -28 0 -35 -4 -39 -22 -3 -14 -5 -9 -6 15 -1 37 -1 37 39
37 29 0 40 -4 40 -15z m45 9 c19 -8 45 -55 45 -84 0 -11 5 -20 10 -20 6 0 10
-7 10 -15 0 -8 -4 -15 -10 -15 -5 0 -18 -17 -29 -39 -17 -32 -38 -51 -57 -51
-2 0 -4 7 -4 15 0 9 9 15 23 16 l22 0 -22 9 c-22 9 -23 15 -23 100 0 89 3 96
35 84z m-47 -108 c3 -62 1 -68 -13 -56 -12 10 -15 10 -15 -4 0 -9 7 -19 15
-22 17 -7 21 -34 5 -34 -12 0 -34 24 -65 71 -27 43 -18 61 26 52 18 -3 29 -1
29 6 0 6 -8 11 -19 11 -14 0 -17 6 -13 26 3 19 10 24 26 22 19 -3 21 -10 24
-72z"/>
<path d="M150 170 c0 -5 5 -10 11 -10 5 0 7 5 4 10 -3 6 -8 10 -11 10 -2 0 -4
-4 -4 -10z"/>
<path d="M180 170 c0 -5 5 -10 11 -10 5 0 7 5 4 10 -3 6 -8 10 -11 10 -2 0 -4
-4 -4 -10z"/>
<path d="M150 120 c0 -16 5 -21 23 -18 12 2 22 10 22 18 0 8 -10 16 -22 18
-18 3 -23 -2 -23 -18z"/>
<path d="M70 120 c0 -5 5 -10 11 -10 5 0 7 5 4 10 -3 6 -8 10 -11 10 -2 0 -4
-4 -4 -10z"/>
</g>
</svg>
